<?xml version="1.0" encoding="UTF-8"?>
<!DOCTYPE svg PUBLIC "-//W3C//DTD SVG 1.1//EN" "http://www.w3.org/Graphics/SVG/1.1/DTD/svg11.dtd">
<svg xmlns="http://www.w3.org/2000/svg" version="1.1" width="255px" height="43px" style="shape-rendering:geometricPrecision; text-rendering:geometricPrecision; image-rendering:optimizeQuality; fill-rule:evenodd; clip-rule:evenodd" xmlns:xlink="http://www.w3.org/1999/xlink">
<g><path style="opacity:0.824" fill="#000000" d="M 15.5,42.5 C 13.1667,42.5 10.8333,42.5 8.5,42.5C 4.34624,40.5738 1.84624,37.2404 1,32.5C 0.214887,18.2302 6.04822,7.73019 18.5,1C 26.4883,-1.34086 29.6549,1.49247 28,9.5C 26.9605,11.7463 25.7938,13.913 24.5,16C 22.8659,16.4935 21.1992,16.6602 19.5,16.5C 21.9714,12.544 23.638,8.21063 24.5,3.5C 19.9359,3.54999 16.4359,5.54999 14,9.5C 9.62706,15.4507 7.12706,22.1174 6.5,29.5C 6.40278,34.6675 8.73611,38.0008 13.5,39.5C 23.2812,35.969 28.7812,28.969 30,18.5C 31.2227,16.0147 32.7227,15.848 34.5,18C 33.5494,18.7175 33.3828,19.5509 34,20.5C 40.1513,24.1727 40.9847,28.8393 36.5,34.5C 39.5603,35.4017 42.0603,34.4017 44,31.5C 46.4223,24.9092 50.9223,20.5759 57.5,18.5C 62.6796,21.9605 62.6796,25.7938 57.5,30C 54.978,31.3409 52.3113,32.1743 49.5,32.5C 49.8922,37.363 52.2256,38.5297 56.5,36C 60.3022,33.9125 62.8022,30.7459 64,26.5C 67.9134,20.95 73.0801,18.95 79.5,20.5C 80.5529,21.4383 81.2196,22.605 81.5,24C 81.0168,27.5288 79.6834,31.0288 77.5,34.5C 77.7332,35.9317 78.3999,36.4317 79.5,36C 83.4332,32.9412 85.7665,28.9412 86.5,24C 83.7138,21.9786 84.0472,20.4786 87.5,19.5C 89.0795,16.0061 90.9128,12.6728 93,9.5C 94.2635,7.39297 96.0968,6.39297 98.5,6.5C 97.7372,11.5276 95.7372,16.0276 92.5,20C 95.5535,20.1786 98.5535,20.6786 101.5,21.5C 101.291,22.086 100.957,22.586 100.5,23C 97.1832,23.4983 93.8499,23.665 90.5,23.5C 89.8389,26.4877 89.1722,29.4877 88.5,32.5C 88.112,34.9548 89.112,36.2881 91.5,36.5C 94.2138,36.0596 96.3805,34.7262 98,32.5C 99.5275,29.5833 100.861,26.5833 102,23.5C 103.028,21.6385 104.528,20.3052 106.5,19.5C 107.72,19.8869 108.387,20.7202 108.5,22C 107.389,25.0551 105.889,27.8884 104,30.5C 102.84,36.6852 104.673,37.8518 109.5,34C 111.227,31.0964 111.893,27.9297 111.5,24.5C 113.144,24.2865 114.644,24.6198 116,25.5C 114.235,38.4421 116.569,39.4421 123,28.5C 124.044,26.2852 124.71,23.9519 125,21.5C 126.356,20.6198 127.856,20.2865 129.5,20.5C 129.251,23.0021 128.917,25.5021 128.5,28C 128.454,29.728 128.954,31.228 130,32.5C 132.754,25.5776 137.587,20.911 144.5,18.5C 149.68,21.9605 149.68,25.7938 144.5,30C 141.978,31.3409 139.311,32.1743 136.5,32.5C 136.227,34.9582 137.227,36.6249 139.5,37.5C 144.658,36.0041 148.658,33.0041 151.5,28.5C 151.545,33.6722 148.878,37.1722 143.5,39C 140.167,41 136.833,41 133.5,39C 131.963,37.8904 131.297,36.3904 131.5,34.5C 128.348,35.0414 125.848,34.0414 124,31.5C 122.562,35.7746 119.729,38.4412 115.5,39.5C 112.936,39.38 111.436,38.0467 111,35.5C 106.537,40.7413 102.204,40.7413 98,35.5C 93.2927,41.4146 88.4594,41.748 83.5,36.5C 79.5501,40.3392 75.7168,40.3392 72,36.5C 68.3032,41.2644 64.3032,41.5978 60,37.5C 55.6952,40.3763 51.1952,40.8763 46.5,39C 45.2986,38.0975 44.4652,36.9308 44,35.5C 40.4466,39.5626 36.4466,40.2292 32,37.5C 31.1176,33.4688 31.9509,29.8021 34.5,26.5C 34.1667,25.5 33.5,24.8333 32.5,24.5C 29.0553,32.8201 23.3886,38.8201 15.5,42.5 Z M 56.5,21.5 C 57.3764,21.3691 58.0431,21.7025 58.5,22.5C 57.1667,25.8333 54.8333,28.1667 51.5,29.5C 50.479,28.9984 50.3123,28.3317 51,27.5C 53.0396,25.6298 54.8729,23.6298 56.5,21.5 Z M 143.5,21.5 C 144.376,21.3691 145.043,21.7025 145.5,22.5C 144.167,25.8333 141.833,28.1667 138.5,29.5C 137.479,28.9984 137.312,28.3317 138,27.5C 140.04,25.6298 141.873,23.6298 143.5,21.5 Z M 73.5,22.5 C 74.8333,22.5 76.1667,22.5 77.5,22.5C 75.6725,27.6191 72.6725,32.1191 68.5,36C 67.552,36.4828 66.552,36.6495 65.5,36.5C 66.6045,30.9597 69.2711,26.293 73.5,22.5 Z"/></g>
<g><path style="opacity:0.877" fill="#000000" d="M 172.5,42.5 C 171.5,42.5 170.5,42.5 169.5,42.5C 168.03,40.8405 167.363,38.8405 167.5,36.5C 168.129,31.7797 169.463,27.2797 171.5,23C 169.5,22.6667 167.5,22.3333 165.5,22C 167.392,19.1808 170.059,17.3474 173.5,16.5C 174.973,12.7492 176.64,9.08253 178.5,5.5C 171.134,3.87456 168.468,6.87456 170.5,14.5C 167.459,14.6206 165.792,13.1206 165.5,10C 166.969,4.41913 170.635,1.41913 176.5,1C 183.555,1.09713 190.555,1.09713 197.5,1C 196.122,2.71337 194.455,4.0467 192.5,5C 189.167,5.33333 185.833,5.66667 182.5,6C 181.073,9.44421 179.74,12.9442 178.5,16.5C 181.22,18.1107 184.22,18.944 187.5,19C 186.833,19.6667 186.167,20.3333 185.5,21C 182.518,21.498 179.518,21.6646 176.5,21.5C 174.69,28.4055 173.357,35.4055 172.5,42.5 Z"/></g>
<g><path style="opacity:0.815" fill="#000000" d="M 254.5,29.5 C 254.5,29.8333 254.5,30.1667 254.5,30.5C 252.608,34.1684 249.608,35.3351 245.5,34C 244.874,33.2496 244.374,32.4162 244,31.5C 241.898,35.2741 238.898,37.9407 235,39.5C 234.167,39.3333 233.333,39.1667 232.5,39C 231.355,33.7837 229.688,33.4504 227.5,38C 222.396,40.8461 219.563,39.3461 219,33.5C 216.931,34.2638 214.764,34.7638 212.5,35C 208.276,39.9925 203.776,40.4925 199,36.5C 196.683,39.0965 193.85,39.9299 190.5,39C 188.955,37.1781 188.288,35.0114 188.5,32.5C 190.128,22.7836 193.628,13.7836 199,5.5C 200.719,3.44293 202.719,1.77626 205,0.5C 206.734,1.46645 207.568,2.96645 207.5,5C 205.525,14.3029 201.025,22.1363 194,28.5C 193.126,31.3787 193.46,34.0454 195,36.5C 196.512,35.7433 197.846,34.7433 199,33.5C 199.848,30.3022 201.348,27.4689 203.5,25C 204.793,24.51 206.127,24.3433 207.5,24.5C 207.297,22.6096 207.963,21.1096 209.5,20C 211.902,19.1859 214.235,19.3526 216.5,20.5C 217.841,24.6346 217.174,28.4679 214.5,32C 216.163,32.2649 217.663,31.7649 219,30.5C 220,28.1667 221,25.8333 222,23.5C 223.907,20.7133 225.407,20.88 226.5,24C 224.576,27.603 223.576,31.4363 223.5,35.5C 224.822,35.67 225.989,35.3366 227,34.5C 229.995,31.0134 231.828,27.0134 232.5,22.5C 233.833,22.5 235.167,22.5 236.5,22.5C 235.603,27.1398 235.436,31.8065 236,36.5C 240.497,32.5068 243.164,27.5068 244,21.5C 245.356,20.6198 246.856,20.2865 248.5,20.5C 247.495,24.5207 247.495,28.5207 248.5,32.5C 250.149,31.3523 251.649,30.019 253,28.5C 253.383,29.056 253.883,29.3893 254.5,29.5 Z M 202.5,9.5 C 201.379,13.4736 199.546,17.1403 197,20.5C 197.752,16.3299 199.585,12.6632 202.5,9.5 Z M 211.5,22.5 C 212.5,22.5 213.5,22.5 214.5,22.5C 212.205,33.1357 211.205,33.1357 211.5,22.5 Z M 206.5,26.5 C 207.199,28.556 208.199,30.556 209.5,32.5C 208.52,33.9814 207.353,35.3147 206,36.5C 205.009,35.5704 204.509,34.4038 204.5,33C 205.033,30.7739 205.7,28.6073 206.5,26.5 Z"/></g>
<g><path style="opacity:0.849" fill="#000000" d="M 109.5,10.5 C 111.635,10.147 112.968,10.9803 113.5,13C 112.942,15.058 111.609,16.2247 109.5,16.5C 105.641,14.678 105.641,12.678 109.5,10.5 Z"/></g>
<g><path style="opacity:0.067" fill="#000000" d="M 170.5,14.5 C 171.833,15.1667 171.833,15.1667 170.5,14.5 Z"/></g>
</svg>
