<svg xmlns="http://www.w3.org/2000/svg" version="1.1" xmlns:xlink="http://www.w3.org/1999/xlink" xmlns:svgjs="http://svgjs.dev/svgjs" width="115" height="43" viewBox="0 0 115 43"><g transform="matrix(1,0,0,1,-0.6060606060606233,-0.3688120540967219)"><svg viewBox="0 0 396 56" data-background-color="#ffffff" preserveAspectRatio="xMidYMid meet" height="43" width="115" xmlns="http://www.w3.org/2000/svg" xmlns:xlink="http://www.w3.org/1999/xlink"><g id="tight-bounds" transform="matrix(1,0,0,1,0.2400000000000091,0.14647854630791812)"><svg viewBox="0 0 395.52 55.707042253521124" height="55.707042253521124" width="395.52"><g><svg viewBox="0 0 395.52 55.707042253521124" height="55.707042253521124" width="395.52"><g><svg viewBox="0 0 395.52 55.707042253521124" height="55.707042253521124" width="395.52"><g id="textblocktransform"><svg viewBox="0 0 395.52 55.707042253521124" height="55.707042253521124" width="395.52" id="textblock"><g><svg viewBox="0 0 395.52 55.707042253521124" height="55.707042253521124" width="395.52"><g transform="matrix(1,0,0,1,0,0)"><svg width="395.52" viewBox="1 -29.600000381469727 230.72000122070312 32.5" height="55.707042253521124" data-palette-color="#000000"><path d="M27.9-25.2L27.9-25.2Q27.9-28 24.95-28L24.95-28Q22.4-28 18.32-25.6 14.25-23.2 9.95-18.28 5.65-13.35 3.95-7.95L3.95-7.95Q3.25-5.8 3.25-3.98 3.25-2.15 4.3-0.8L4.3-0.8Q6.15 1.6 10.35 1.65L10.35 1.65Q10.65 1.65 10.9 1.65L10.9 1.65Q15.55 1.65 20.95-0.73 26.35-3.1 29.6-7.7L29.6-7.7Q29.85-8.05 30.13-7.85 30.4-7.65 30.4-7.5 30.4-7.35 30.3-7.25L30.3-7.25Q26.6-2.2 21.2 0.35 15.8 2.9 10.75 2.9L10.75 2.9Q5.45 2.9 2.75-0.1L2.75-0.1Q1-2.05 1-5.2L1-5.2Q1-10.5 5-16.6L5-16.6Q10.45-24.9 18.2-28.1L18.2-28.1Q21.2-29.3 23.95-29.3L23.95-29.3Q27.35-29.3 28.8-27.7L28.8-27.7Q29.75-26.6 29.75-25.15L29.75-25.15Q29.75-22.4 26.85-19.5 23.95-16.6 20.43-14.88 16.9-13.15 14.3-12.9L14.3-12.9Q13.25-12.8 13.3-13.45L13.3-13.45Q13.35-14.35 14.55-14.45L14.55-14.45Q18.55-14.8 21.9-16.88 25.25-18.95 27.05-22.4L27.05-22.4Q27.9-23.75 27.9-25.2ZM35.35 1.25L35.35 1.25Q32.8 1.25 32.8-1.83 32.8-4.9 37.2-9.4L37.2-9.4Q37.55-9.75 37.7-9.95L37.7-9.95 38.05-10.45Q38.75-11.4 38.7-11.65L38.7-11.65 38.55-12.1Q38.35-12.7 36.9-12.98 35.45-13.25 34.55-13.25L34.55-13.25Q30.05-6.9 29.35-6 28.65-5.1 28.4-5.25 28.15-5.4 28.15-5.6 28.15-5.8 28.45-6.2L28.45-6.2Q31.15-9.5 33.1-13.25L33.1-13.25Q32.5-13.35 32.2-13.68 31.9-14 32.15-14.78 32.4-15.55 33.67-16.85 34.95-18.15 35.9-18.6 36.85-19.05 37.1-19.15 37.35-19.25 37.65-19.25L37.65-19.25Q38.25-19.25 37.25-17.45L37.25-17.45 35.3-14.35Q37.55-14.2 39.15-14.2L39.15-14.2 40.9-14.25Q41.75-14.25 42.15-14.03 42.55-13.8 42.35-13.25L42.35-13.25Q42-12.3 40.6-10.7L40.6-10.7Q37.6-7.2 36.1-3.25L36.1-3.25Q35.75-2.3 35.75-1.6L35.75-1.6Q35.75-0.15 36.8-0.15L36.8-0.15Q37.15-0.15 38.12-0.7 39.1-1.25 41.4-3.33 43.7-5.4 45.1-7.4L45.1-7.4Q45.3-7.65 45.57-7.53 45.85-7.4 45.85-7.28 45.85-7.15 45.75-7L45.75-7Q45-5.65 43.05-3.55 41.1-1.45 39.25-0.15L39.25-0.15Q37.45 1.25 35.35 1.25ZM56.05-14.55L56.05-14.55Q58.75-14.55 58.75-11.95L58.75-11.95Q58.75-10.6 58-9.75L58-9.75Q56.75-7.9 53.95-6.53 51.15-5.15 49.2-5L49.2-5Q48.5-4.95 48.45-5.4L48.45-5.4Q48.4-5.6 48.57-5.65 48.75-5.7 48.85-5.7L48.85-5.7Q50-5.8 51.8-6.8L51.8-6.8Q55.15-8.6 56.7-10.5L56.7-10.5Q57.35-11.4 57.35-12.23 57.35-13.05 56.55-13.05L56.55-13.05Q55.9-13.05 54.8-12.5L54.8-12.5Q52.45-11.4 49.85-8.68 47.25-5.95 46.45-3.35L46.45-3.35Q46.2-2.55 46.2-1.78 46.2-1 46.85-0.3 47.5 0.4 48.85 0.4L48.85 0.4Q50.35 0.4 52.3-0.4L52.3-0.4Q57.95-2.7 61-7.35L61-7.35Q61.3-7.75 61.55-7.5L61.55-7.5Q61.75-7.4 61.75-7.25 61.75-7.1 61.6-6.9L61.6-6.9Q60.1-4.4 57.8-2.45L57.8-2.45Q53.35 1.35 49.15 1.35L49.15 1.35Q45.55 1.35 44.1-0.8L44.1-0.8Q43.55-1.65 43.55-2.85 43.55-4.05 44.2-5.7L44.2-5.7Q45.45-8.55 49.55-11.55 53.65-14.55 56.05-14.55ZM62.94 0.55L62.94 0.55Q62.14 0.55 61.22 0.08 60.29-0.4 59.64-1.28 58.99-2.15 58.99-3.15 58.99-4.15 59.44-5.05L59.44-5.05Q60.44-7.15 62.67-9.13 64.89-11.1 67.29-12.5 69.69-13.9 71.09-14.25 72.49-14.6 73.82-14.6 75.14-14.6 76.09-13.93 77.04-13.25 77.04-12.5L77.04-12.5Q77.04-12.25 76.99-12.2 76.94-12.15 76.74-12.25L76.74-12.25Q76.14-13.2 74.27-13.2 72.39-13.2 70.02-11.98 67.64-10.75 65.54-8.9L65.54-8.9Q63.79-7.25 62.47-5.18 61.14-3.1 61.14-2.15L61.14-2.15Q61.14-0.3 62.19-0.3 63.24-0.3 65.39-2L65.39-2Q68.94-5 70.24-6.4L70.24-6.4Q74.84-11.35 75.19-11.35L75.19-11.35Q75.79-11.35 76.64-11 77.49-10.65 77.19-10.15L77.19-10.15Q74.64-6.55 74.19-2.9L74.19-2.9Q74.14-2.45 74.14-1.75 74.14-1.05 74.54-0.6L74.54-0.6Q75.29 0.2 76.59-0.5 77.89-1.2 80.22-3.3 82.54-5.4 83.94-7.4L83.94-7.4Q84.14-7.65 84.39-7.53 84.64-7.4 84.64-7.3L84.64-7.3Q84.64-6.55 82.27-4.03 79.89-1.5 78.64-0.6L78.64-0.6Q76.29 1.15 74.29 1.15L74.29 1.15Q72.39 1.15 71.74-0.75L71.74-0.75Q71.59-1.35 71.59-2.1L71.59-2.1Q71.59-4.35 72.54-6.85L72.54-6.85Q72.34-6.75 70.69-4.85 69.04-2.95 66.87-1.2 64.69 0.55 62.94 0.55ZM90.64-13.95L91.29-14Q95.14-14.35 95.97-14.35 96.79-14.35 96.79-14.1L96.79-14.1Q96.79-13.8 95.62-13.48 94.44-13.15 89.89-12.65L89.89-12.65Q89.64-12.2 89.29-11.6L89.29-11.6Q88.54-10.4 88.49-10.15L88.49-10.15Q85.64-4.45 85.49-2.9L85.49-2.9Q85.44-2.45 85.44-1.75 85.44-1.05 85.84-0.6L85.84-0.6Q86.54 0.2 87.84-0.5 89.14-1.2 91.47-3.3 93.79-5.4 95.24-7.4L95.24-7.4Q95.44-7.65 95.74-7.5L95.74-7.5Q96.49-7.15 93.14-3.55L93.14-3.55Q89.94-0.1 87.79 0.7L87.79 0.7Q86.54 1.15 85.69 1.15L85.69 1.15Q83.69 1.15 83.04-0.75L83.04-0.75Q82.94-1.1 82.94-1.6L82.94-1.6Q82.94-3.35 84.54-6.9L84.54-6.9Q84.29-6.35 82.59-4.4L82.59-4.4Q82.14-3.9 81.89-4.4L81.89-4.4Q81.84-4.5 81.84-4.67 81.84-4.85 82.04-5.1L82.04-5.1Q84.49-8.15 85.89-10.25L85.89-10.25Q85.89-10.3 86.99-12.35L86.99-12.35Q86.49-12.25 85.97-12.25 85.44-12.25 85.19-12.58 84.94-12.9 85.14-13.35L85.14-13.35Q85.49-14.15 87.79-14.25L87.79-14.25Q87.84-14.35 87.99-14.35L87.99-14.35 90.49-19Q90.69-19.4 90.94-19.83 91.19-20.25 91.32-20.48 91.44-20.7 91.59-20.95 91.74-21.2 91.84-21.3 91.94-21.4 92.04-21.5L92.04-21.5Q92.24-21.8 93.22-21.8 94.19-21.8 94.54-21.25L94.54-21.25Q94.69-21.05 94.69-20.58 94.69-20.1 94.34-19.53 93.99-18.95 93.59-18.7 93.19-18.45 93.04-18.15L93.04-18.15 90.64-13.95ZM99.39-13.85L99.39-13.85Q100.64-13.85 100.89-13.05L100.89-13.05Q100.99-12.6 100.76-12.18 100.54-11.75 100.44-11.5 100.34-11.25 100.29-11.1L100.29-11.1Q100.04-10.6 99.79-10.15L99.79-10.15Q96.94-4.45 96.79-2.9L96.79-2.9Q96.74-2.45 96.74-1.75 96.74-1.05 97.14-0.6L97.14-0.6Q97.84 0.2 99.14-0.5 100.44-1.2 102.76-3.3 105.09-5.4 106.54-7.4L106.54-7.4Q106.74-7.65 106.99-7.53 107.24-7.4 107.24-7.28 107.24-7.15 107.14-7L107.14-7Q106.39-5.65 104.44-3.55L104.44-3.55Q101.24-0.1 99.09 0.7L99.09 0.7Q97.84 1.15 96.99 1.15L96.99 1.15Q94.99 1.15 94.34-0.75L94.34-0.75Q94.24-1.1 94.24-1.6L94.24-1.6Q94.24-3.35 95.84-6.9L95.84-6.9Q95.59-6.35 93.89-4.4L93.89-4.4Q93.44-3.9 93.19-4.4L93.19-4.4Q93.14-4.5 93.14-4.67 93.14-4.85 93.34-5.1L93.34-5.1Q95.79-8.15 97.19-10.25L97.19-10.25Q97.09-10.5 97.29-10.9L97.29-10.9Q98.29-13.7 99.04-13.85L99.04-13.85Q99.19-13.85 99.39-13.85ZM103.34-20.5L103.34-20.5 102.94-18.9Q102.94-18.45 102.29-17.45 101.64-16.45 101.29-16.45L101.29-16.45Q99.14-16.45 99.14-17.5L99.14-17.5Q99.14-17.7 101.29-19.35L101.29-19.35 102.14-20Q102.94-20.7 103.14-20.7 103.34-20.7 103.34-20.5ZM108.49-11.15L108.49-11.15Q108.49-13.55 107.09-13.55L107.09-13.55Q106.79-13.55 106.46-13.48 106.14-13.4 106.14-13.6 106.14-13.8 106.44-14.1L106.44-14.1Q106.74-14.35 108.49-14.5L108.49-14.5Q110.59-14.5 111.11-13.9 111.64-13.3 111.64-12.7 111.64-12.1 110.71-9.73 109.79-7.35 109.74-7.25L109.74-7.25Q108.24-2.75 108.39-1.6L108.39-1.6Q112.89-7.65 114.29-9.15L114.29-9.15Q117.24-12.4 118.49-13.6L118.49-13.6Q121.39-16.3 123.59-17.25L123.59-17.25Q124.24-17.5 124.74-17.5L124.74-17.5Q126.39-17.5 126.99-16.5L126.99-16.5Q127.19-16.25 127.19-16.03 127.19-15.8 127.04-15.5 126.89-15.2 126.49-15.53 126.09-15.85 124.69-15.85L124.69-15.85Q122.39-15.85 116.99-10.45L116.99-10.45Q113.74-7.1 111.01-3.45 108.29 0.2 108.09 1.75L108.09 1.75Q108.09 2.15 107.34 2.15 106.59 2.15 106.21 1.53 105.84 0.9 105.84 0.48 105.84 0.05 105.89-0.28 105.94-0.6 106.89-3.95 107.84-7.3 108.09-8.4L108.09-8.4Q107.49-7.4 106.44-5.95L106.44-5.95Q106.09-5.55 105.86-5.73 105.64-5.9 105.64-6.05 105.64-6.2 105.74-6.4L105.74-6.4Q107.84-9.25 108.49-11.15ZM133.18-14.55L133.18-14.55Q135.88-14.55 135.88-11.95L135.88-11.95Q135.88-10.6 135.13-9.75L135.13-9.75Q133.88-7.9 131.08-6.53 128.28-5.15 126.33-5L126.33-5Q125.63-4.95 125.58-5.4L125.58-5.4Q125.53-5.6 125.71-5.65 125.88-5.7 125.98-5.7L125.98-5.7Q127.13-5.8 128.93-6.8L128.93-6.8Q132.28-8.6 133.83-10.5L133.83-10.5Q134.48-11.4 134.48-12.23 134.48-13.05 133.68-13.05L133.68-13.05Q133.03-13.05 131.93-12.5L131.93-12.5Q129.58-11.4 126.98-8.68 124.38-5.95 123.58-3.35L123.58-3.35Q123.33-2.55 123.33-1.78 123.33-1 123.98-0.3 124.63 0.4 125.98 0.4L125.98 0.4Q127.48 0.4 129.43-0.4L129.43-0.4Q135.08-2.7 138.13-7.35L138.13-7.35Q138.43-7.75 138.68-7.5L138.68-7.5Q138.88-7.4 138.88-7.25 138.88-7.1 138.73-6.9L138.73-6.9Q137.23-4.4 134.93-2.45L134.93-2.45Q130.48 1.35 126.28 1.35L126.28 1.35Q122.68 1.35 121.23-0.8L121.23-0.8Q120.68-1.65 120.68-2.85 120.68-4.05 121.33-5.7L121.33-5.7Q122.58-8.55 126.68-11.55 130.78-14.55 133.18-14.55ZM160.08-2.9L160.08-2.9Q160.23-2.9 160.23-2.6 160.23-2.3 159.53-1.6L159.53-1.6 159.03-0.85Q157.68 1.2 157.05 1.55 156.43 1.9 156.05 1.9 155.68 1.9 154.9 1.73 154.13 1.55 154.1 1.35 154.08 1.15 154.08 0.95L154.08 0.95Q154.08-1.5 158.53-10.1L158.53-10.1Q157.33-9.95 156.7-9.95 156.08-9.95 155.65-10.33 155.23-10.7 155.23-11.3 155.23-11.9 156.28-12.4 157.33-12.9 157.9-12.9 158.48-12.9 158.88-12.43 159.28-11.95 159.38-11.95L159.38-11.95 159.53-11.95Q160.58-13.85 161.43-15.45 162.28-17.05 162.28-17.53 162.28-18 162.13-18.25L162.13-18.25Q162.43-19.7 164.6-21.95 166.78-24.2 168.58-24.2L168.58-24.2Q169.38-24.2 170.53-23.58 171.68-22.95 171.53-21.95L171.53-21.95Q171.18-22.2 170.88-22.2L170.88-22.2Q167.48-22.2 161.53-12L161.53-12Q163.18-12.15 164.98-12.45L164.98-12.45Q170.98-13.2 171.78-13.2 172.58-13.2 172.8-13.18 173.03-13.15 173.2-13.05 173.38-12.95 173.43-12.85L173.43-12.85Q173.48-12.55 172.28-12.15L172.28-12.15Q169.38-11.2 160.53-10.25L160.53-10.25Q156.33-2.65 156.33-0.9L156.33-0.9Q156.33-0.05 157.05-0.28 157.78-0.5 158.33-1.2L158.33-1.2Q159.63-2.9 160.08-2.9ZM179.63-26.7L179.63-26.7Q181.08-28.3 182.38-28.3L182.38-28.3Q182.98-28.3 183.33-28 183.68-27.7 183.68-27.4 183.68-27.1 183.38-26.8 183.08-26.5 182.23-25.88 181.38-25.25 180.88-24.75L180.88-24.75Q178.48-22.4 178.48-20.7L178.48-20.7Q178.48-19.95 178.8-19.45 179.13-18.95 178.73-18.82 178.33-18.7 177.98-19.15L177.98-19.15Q177.53-19.45 177.53-21.15L177.53-21.15Q177.53-23.4 178.33-24.9L178.33-24.9Q178.43-25.05 178.65-25.43 178.88-25.8 179.03-25.95L179.03-25.95Q178.68-25.95 177.15-25.95 175.63-25.95 171.1-26.35 166.58-26.75 164.28-26.75 161.98-26.75 160.73-26.45L160.73-26.45Q155.98-25.8 152.55-23.83 149.13-21.85 148.48-18.85L148.48-18.85Q148.38-18.55 148.38-18.13 148.38-17.7 148.65-17.1 148.93-16.5 149.33-16.15 149.73-15.8 150.55-15.3 151.38-14.8 151.65-14.58 151.93-14.35 151.75-14.2 151.58-14.05 151.4-14.05 151.23-14.05 151.03-14.1L151.03-14.1Q149.33-14.6 148.15-15.98 146.98-17.35 146.98-18.28 146.98-19.2 147.23-19.85L147.23-19.85Q147.23-20.4 147.28-20.65L147.28-20.65Q148.03-24.2 151.83-26.15L151.83-26.15Q156.38-28.5 162.93-28.5L162.93-28.5Q166.53-28.5 171.78-27.65 177.03-26.8 179.63-26.7ZM192.38-25.5L192.38-25.5Q192.98-26.6 192.98-27.2L192.98-27.2Q192.98-28.25 192.13-28.25L192.13-28.25Q191.43-28.25 190.38-27.45L190.38-27.45Q186.38-24.35 182.63-17.65L182.63-17.65Q179.63-12.25 178.22-8.4L178.22-8.4Q181.68-10.75 185.95-16.05 190.22-21.35 192.38-25.5ZM177.47-6.4L177.47-6.4Q176.88-4.7 176.83-4.13 176.78-3.55 176.78-2.58 176.78-1.6 177.28-0.8L177.28-0.8Q178.13 0.55 180.13-0.6L180.13-0.6Q181.63-1.4 183.93-3.53 186.22-5.65 187.47-7.4L187.47-7.4Q187.58-7.55 187.78-7.55L187.78-7.55Q188.22-7.55 188.03-6.9L188.03-6.9Q187.28-5.55 185.25-3.45 183.22-1.35 181.58-0.13 179.93 1.1 178.28 1.1L178.28 1.1Q174.47 1.1 174.47-2.6L174.47-2.6Q174.47-2.75 174.47-2.9L174.47-2.9Q174.68-6.4 178.03-13.48 181.38-20.55 184.08-24.15L184.08-24.15 185.63-26.1Q186.18-26.75 187.22-27.7L187.22-27.7Q189.22-29.6 191.35-29.6 193.48-29.6 194.23-28.3L194.23-28.3Q194.48-27.85 194.48-27 194.48-26.15 193.73-24.6L193.73-24.6Q188.58-15.65 177.47-6.4ZM197.12-5.5L197.12-5.5Q198.02-7.35 198.02-8.35 198.02-9.35 197.8-9.93 197.57-10.5 198-10.9 198.42-11.3 199.07-11.2L199.07-11.2Q200.07-10.95 200.07-8.95 200.07-6.95 197.72-3.7L197.72-3.7Q197.77-2.35 199.12-2.35 200.47-2.35 203.22-5.25L203.22-5.25Q204.52-6.75 204.85-7.2 205.17-7.65 205.42-7.53 205.67-7.4 205.67-7.3L205.67-7.3Q205.67-6.8 203.87-4.7L203.87-4.7Q201.02-1.2 198.82-1.2L198.82-1.2Q197.37-1.2 196.77-2.45L196.77-2.45Q195.77-1.4 194.82-0.5L194.82-0.5Q192.87 1.15 190.47 1.15L190.47 1.15Q189.12 1.15 188.22 0.5L188.22 0.5Q186.47-0.55 186.47-3.25L186.47-3.25Q186.47-6.2 188.47-9.25L188.47-9.25Q189.62-11.05 191.17-12.4L191.17-12.4Q193.62-14.55 195.82-14.55L195.82-14.55Q196.37-14.55 196.87-14.4L196.87-14.4Q198.37-13.9 198.37-12.5L198.37-12.5Q198.37-11.35 197.77-11.35L197.77-11.35Q197.52-11.45 197.52-12.1L197.52-12.1Q197.52-13 196.52-13L196.52-13Q194.77-13 192.02-9.8 189.27-6.6 188.72-3.35L188.72-3.35Q188.62-2.8 188.62-2.13 188.62-1.45 189.07-0.58 189.52 0.3 190.75 0.3 191.97 0.3 193.42-0.8 194.87-1.9 196.02-3.6L196.02-3.6 195.87-3.9Q195.67-4.7 196.07-5.2 196.47-5.7 197.12-5.5ZM212-12.5Q211.27-11.9 209.35-9.38 207.42-6.85 206.7-4.9 205.97-2.95 205.97-1.7 205.97-0.45 207.05-0.45 208.12-0.45 210.07-2L210.07-2Q213.22-4.6 217.17-11.65L217.17-11.65Q217.37-12 217.9-12 218.42-12 219.35-11.73 220.27-11.45 220.27-11L220.27-11Q220.27-10.85 220.17-10.7L220.17-10.7Q218.07-7.3 217.52-3L217.52-3Q217.32-1.55 218.02-0.65L218.02-0.65Q218.67 0.25 220.67-0.85L220.67-0.85Q223.77-2.4 226.35-5.7 228.92-9 229.52-11.65L229.52-11.65Q229.72-12.2 229.72-12.85L229.72-12.85Q229.72-15.65 228.12-16.25L228.12-16.25Q227.67-16.45 227.12-16.38 226.57-16.3 226.47-16.43 226.37-16.55 226.42-16.7L226.42-16.7Q226.52-17.15 228.47-17.15L228.47-17.15Q231.72-17.15 231.72-13.8 231.72-10.45 227.92-5.75L227.92-5.75Q225.52-2.9 222.27-0.5L222.27-0.5Q220.47 0.75 218.52 0.75L218.52 0.75Q215.97 0.75 215.37-1.15L215.37-1.15Q215.02-2.05 215.02-4 215.02-5.95 215.52-7.2L215.52-7.2Q214.17-4.5 212.57-2.65 210.97-0.8 209.85-0.13 208.72 0.55 207.57 0.55L207.57 0.55Q205.57 0.55 204.77-0.53 203.97-1.6 203.97-2.85L203.97-2.85Q203.97-4.5 204.7-6.43 205.42-8.35 206.15-9.47 206.87-10.6 208.05-12.18 209.22-13.75 209.57-13.9L209.57-13.9Q210.32-14.1 211-14.1 211.67-14.1 212.17-13.9 212.67-13.7 212.7-13.4 212.72-13.1 212-12.5Z" opacity="1" transform="matrix(1,0,0,1,0,0)" fill="#000000" class="wordmark-text-0" data-fill-palette-color="primary" id="text-0"></path></svg></g></svg></g></svg></g></svg></g></svg></g><defs></defs></svg><rect width="395.52" height="55.707042253521124" fill="none" stroke="none" visibility="hidden"></rect></g></svg></g></svg>